<?xml version="1.0" encoding="UTF-8"?>
<svg id="Layer_1" xmlns="http://www.w3.org/2000/svg" version="1.1" viewBox="0 0 36 36">
  <!-- Generator: Adobe Illustrator 30.2.1, SVG Export Plug-In . SVG Version: 2.1.1 Build 1)  -->
  <defs>
    <style>
      .st0, .st1 {
        fill: #fff;
      }

      .st1 {
        fill-rule: evenodd;
      }
    </style>
  </defs>
  <path class="st0" d="M17.87,14.08c.77,0,1.47.31,1.98.82.51.51.82,1.21.82,1.98s-.31,1.47-.82,1.98c-.51.51-1.21.82-1.98.82s-1.47-.31-1.98-.82c-.51-.51-.82-1.21-.82-1.98s.31-1.47.82-1.98c.51-.51,1.21-.82,1.98-.82Z"/>
  <path class="st1" d="M6.67,18.15l10.85-10.43c.19-.19.5-.19.69,0h0s0,0,0,0l10.74,10.43h0s.35.32.35.32c.11.1.17.23.17.37h0v15.44c0,.28-.22.5-.5.5h-7.69v-9.39c0-.28-.22-.5-.5-.5h-5.84c-.28,0-.5.22-.5.5v9.39h-7.69c-.28,0-.5-.22-.5-.5v-15.53c0-.15.07-.29.18-.39l.23-.22Z"/>
  <path class="st1" d="M17.87,5.16L3.03,19.25c-.4.38-1.03.36-1.41-.04-.38-.4-.36-1.03.04-1.41L17.18,3.06c.39-.37.99-.37,1.38,0l15.52,14.74c.4.38.42,1.01.04,1.41-.38.4-1.01.42-1.41.04l-14.83-14.09Z"/>
</svg>